<?xml version="1.0" standalone="no"?>
<!DOCTYPE svg PUBLIC "-//W3C//DTD SVG 20010904//EN"
 "http://www.w3.org/TR/2001/REC-SVG-20010904/DTD/svg10.dtd">
<svg version="1.0" xmlns="http://www.w3.org/2000/svg"
 width="48.000000pt" height="48.000000pt" viewBox="0 0 48.000000 48.000000"
 preserveAspectRatio="xMidYMid meet">

<g transform="translate(0.000000,48.000000) scale(0.100000,-0.100000)"
fill="#000000" stroke="none">
<path d="M195 390 c-26 -55 -32 -60 -53 -55 -34 8 -112 -5 -112 -19 0 -6 22
-33 49 -60 l49 -48 -24 -59 c-13 -32 -21 -65 -18 -74 10 -24 57 -18 102 15 23
17 47 30 53 30 5 0 31 -16 56 -35 25 -19 51 -35 58 -35 28 0 38 30 32 96 -6
65 -6 67 28 107 19 22 35 49 35 59 0 16 -9 18 -67 18 l-68 0 -30 58 c-16 31
-37 58 -45 60 -11 2 -26 -18 -45 -58z m81 -7 l30 -58 67 -3 c37 -2 67 -7 67
-12 0 -6 -16 -28 -35 -49 -35 -39 -36 -40 -29 -105 10 -102 -12 -114 -89 -50
-37 31 -57 30 -102 -6 -44 -35 -85 -40 -85 -10 0 11 9 43 20 72 l21 53 -53 47
c-29 26 -49 50 -45 54 4 4 34 7 68 7 l60 0 30 59 c16 32 33 58 37 58 4 0 22
-26 38 -57z"/>
<path d="M193 280 c4 -18 37 -27 37 -10 0 6 -5 8 -11 4 -6 -3 -16 0 -21 7 -8
12 -9 11 -5 -1z"/>
<path d="M276 269 c3 -5 11 -9 19 -9 8 0 16 4 19 9 3 5 -5 9 -19 9 -14 0 -22
-4 -19 -9z"/>
<path d="M230 188 c0 -5 11 -8 25 -8 14 0 25 3 25 8 0 4 -11 7 -25 7 -14 0
-25 -3 -25 -7z"/>
</g>
</svg>
