<?xml version="1.0" encoding="UTF-8"?>
<svg xmlns="http://www.w3.org/2000/svg" xmlns:xlink="http://www.w3.org/1999/xlink" width="37pt" height="37pt" viewBox="0 0 37 37" version="1.1">
<g id="surface1">
<path style=" stroke:none;fill-rule:nonzero;fill:rgb(100%,75.686275%,2.745098%);fill-opacity:1;" d="M 36.890625 14.1875 C 36.648438 13.4375 35.984375 12.90625 35.195312 12.835938 L 24.523438 11.867188 L 20.300781 1.988281 C 19.988281 1.261719 19.28125 0.792969 18.492188 0.792969 C 17.707031 0.792969 16.996094 1.261719 16.683594 1.988281 L 12.464844 11.867188 L 1.789062 12.835938 C 1.003906 12.910156 0.339844 13.4375 0.0976562 14.1875 C -0.148438 14.9375 0.078125 15.757812 0.671875 16.277344 L 8.742188 23.351562 L 6.359375 33.832031 C 6.1875 34.605469 6.484375 35.402344 7.125 35.863281 C 7.46875 36.109375 7.871094 36.238281 8.277344 36.238281 C 8.625 36.238281 8.972656 36.144531 9.285156 35.957031 L 18.492188 30.453125 L 27.699219 35.957031 C 28.371094 36.363281 29.21875 36.324219 29.859375 35.863281 C 30.5 35.398438 30.796875 34.601562 30.621094 33.832031 L 28.242188 23.351562 L 36.3125 16.277344 C 36.90625 15.757812 37.132812 14.9375 36.890625 14.1875 Z M 36.890625 14.1875 "/>
</g>
</svg>
