<svg version="1.0" xmlns="http://www.w3.org/2000/svg"
 width="24.000000pt" height="24.000000pt" viewBox="0 0 24.000000 24.000000"
 preserveAspectRatio="xMidYMid meet">

<g transform="translate(0.000000,24.000000) scale(0.100000,-0.100000)"
fill="#ffffff" stroke="#000000" stroke-width="10px">
<path d="M110 205 c0 -24 -38 -55 -67 -55 l-27 0 27 -28 c23 -24 25 -32 18
-65 l-9 -37 34 21 34 21 34 -21 34 -21 -9 37 c-8 35 -6 40 21 66 l30 27 -30 0
c-32 0 -70 30 -70 55 0 8 -4 15 -10 15 -5 0 -10 -7 -10 -15z"/>
</g>
</svg>
